<svg viewBox="120.093 36.213 157.922 281.85" xmlns="http://www.w3.org/2000/svg">
  <g transform="translate(120.093 36.213)">
    <path d="M78.961 0C35.281 0 0 35.281 0 78.961s35.281 78.961 78.961 78.961 78.961-35.281 78.961-78.961S122.641 0 78.961 0ZM50.402 36.961c-14 9.52-22.398 25.199-22.398 42.559 0 3.36-2.238 5.602-5.602 5.602-3.359 0-5.601-2.239-5.601-5.602 0-20.719 10.078-39.762 27.44-51.52 2.802-1.68 6.161-1.121 7.84 1.68 1.68 1.68 1.118 5.601-1.68 7.28l.001.001Z" style="fill:#ff4b4b"/>
    <path d="M79.316 169.7c2.8 0 5.602 0 8.398-.559v104.31c0 4.48-3.922 8.399-8.398 8.399-4.48 0-8.398-3.922-8.398-8.399v-104.31c2.797 0 5.597.559 8.398.559Z"/>
  </g>
</svg>